<svg width="182" height="70" viewBox="0 0 182 70" fill="none" xmlns="http://www.w3.org/2000/svg">
<mask id="path-1-inside-1_2_22" fill="white">
<path fill-rule="evenodd" clip-rule="evenodd" d="M35 0C6.1775 0 0 6.1775 0 35C0 63.8225 6.1775 70 35 70C63.8225 70 70 63.8225 70 35C70 6.1775 63.8225 0 35 0ZM25.76 22.2539V46.0422H36.8851C41.4724 46.0422 44.9399 43.0866 44.9399 38.9777C44.9399 37.3547 44.42 36.0101 43.4778 34.9737C42.8299 34.2611 41.9823 33.6942 40.9667 33.283C41.6629 32.5111 42.1014 31.6107 42.2954 30.5817C42.373 30.1692 42.4115 29.736 42.4115 29.2822C42.4115 25.1373 38.9439 22.2539 34.3567 22.2539H25.76ZM46.3396 33.7391C45.9393 33.1782 45.4796 32.6785 44.973 32.2372C45.2775 31.2984 45.4216 30.3061 45.4216 29.2822C45.4216 23.0755 40.1716 19.2503 34.3567 19.2503H22.75V49.0457H36.8851C42.7326 49.0457 47.95 45.1202 47.95 38.9777C47.95 37.0449 47.4188 35.2508 46.3396 33.7391ZM33.9593 31.6611C34.2373 31.6611 34.4948 31.6319 34.7299 31.5761C35.7474 31.3346 36.3433 30.5953 36.3433 29.5706C36.3433 28.5458 35.7474 27.8064 34.7299 27.5651C34.4948 27.5093 34.2373 27.4801 33.9593 27.4801H31.7199V31.6611H33.9593ZM36.6554 37.8011C36.6556 37.8013 36.6513 37.8024 36.6422 37.8038C36.6506 37.8017 36.6552 37.801 36.6554 37.8011ZM36.6422 39.6472C36.6513 39.6486 36.6556 39.6496 36.6554 39.6498C36.6552 39.65 36.6506 39.6493 36.6422 39.6472ZM38.8717 38.7255C38.8717 40.1312 37.9687 40.816 36.4878 40.816H31.7199V36.635H36.4878C37.9687 36.635 38.8717 37.3198 38.8717 38.7255Z"/>
</mask>
<path fill-rule="evenodd" clip-rule="evenodd" d="M35 0C6.1775 0 0 6.1775 0 35C0 63.8225 6.1775 70 35 70C63.8225 70 70 63.8225 70 35C70 6.1775 63.8225 0 35 0ZM25.76 22.2539V46.0422H36.8851C41.4724 46.0422 44.9399 43.0866 44.9399 38.9777C44.9399 37.3547 44.42 36.0101 43.4778 34.9737C42.8299 34.2611 41.9823 33.6942 40.9667 33.283C41.6629 32.5111 42.1014 31.6107 42.2954 30.5817C42.373 30.1692 42.4115 29.736 42.4115 29.2822C42.4115 25.1373 38.9439 22.2539 34.3567 22.2539H25.76ZM46.3396 33.7391C45.9393 33.1782 45.4796 32.6785 44.973 32.2372C45.2775 31.2984 45.4216 30.3061 45.4216 29.2822C45.4216 23.0755 40.1716 19.2503 34.3567 19.2503H22.75V49.0457H36.8851C42.7326 49.0457 47.95 45.1202 47.95 38.9777C47.95 37.0449 47.4188 35.2508 46.3396 33.7391ZM33.9593 31.6611C34.2373 31.6611 34.4948 31.6319 34.7299 31.5761C35.7474 31.3346 36.3433 30.5953 36.3433 29.5706C36.3433 28.5458 35.7474 27.8064 34.7299 27.5651C34.4948 27.5093 34.2373 27.4801 33.9593 27.4801H31.7199V31.6611H33.9593ZM36.6554 37.8011C36.6556 37.8013 36.6513 37.8024 36.6422 37.8038C36.6506 37.8017 36.6552 37.801 36.6554 37.8011ZM36.6422 39.6472C36.6513 39.6486 36.6556 39.6496 36.6554 39.6498C36.6552 39.65 36.6506 39.6493 36.6422 39.6472ZM38.8717 38.7255C38.8717 40.1312 37.9687 40.816 36.4878 40.816H31.7199V36.635H36.4878C37.9687 36.635 38.8717 37.3198 38.8717 38.7255Z" fill="white"/>
<path d="M25.76 46.0422H24.76V47.0422H25.76V46.0422ZM25.76 22.2539V21.2539H24.76V22.2539H25.76ZM43.4778 34.9737L42.7379 35.6465L42.7379 35.6465L43.4778 34.9737ZM40.9667 33.283L40.2241 32.6133L39.2677 33.6739L40.5915 34.2099L40.9667 33.283ZM42.2954 30.5817L43.2781 30.7669L43.2781 30.7668L42.2954 30.5817ZM44.973 32.2372L44.0218 31.9287L43.8179 32.5572L44.3162 32.9912L44.973 32.2372ZM46.3396 33.7391L45.5257 34.32L45.5257 34.3201L46.3396 33.7391ZM22.75 19.2503V18.2503H21.75V19.2503H22.75ZM22.75 49.0457H21.75V50.0457H22.75V49.0457ZM34.7299 31.5761L34.4991 30.6031L34.499 30.6031L34.7299 31.5761ZM34.7299 27.5651L34.499 28.5381L34.4991 28.5381L34.7299 27.5651ZM31.7199 27.4801V26.4801H30.7199V27.4801H31.7199ZM31.7199 31.6611H30.7199V32.6611H31.7199V31.6611ZM36.6554 37.8011L37.3625 37.094L37.245 36.9765L37.0958 36.9033L36.6554 37.8011ZM36.6422 37.8038L36.4 36.8336L36.7943 38.7922L36.6422 37.8038ZM36.6422 39.6472L36.7939 38.6587L36.4004 40.6175L36.6422 39.6472ZM36.6554 39.6498L37.3557 40.3636L37.3625 40.3569L37.3692 40.3501L36.6554 39.6498ZM31.7199 40.816H30.7199V41.816H31.7199V40.816ZM31.7199 36.635V35.635H30.7199V36.635H31.7199ZM1 35C1 27.8172 1.38618 22.1135 2.39177 17.5887C3.39484 13.0753 5.00087 9.79647 7.39867 7.39867C9.79647 5.00087 13.0753 3.39484 17.5887 2.39177C22.1135 1.38618 27.8172 1 35 1V-1C27.7716 -1 21.8947 -0.613988 17.1548 0.439403C12.4036 1.49532 8.73385 3.23507 5.98446 5.98446C3.23507 8.73385 1.49532 12.4036 0.439403 17.1548C-0.613988 21.8947 -1 27.7716 -1 35H1ZM35 69C27.8172 69 22.1135 68.6138 17.5887 67.6082C13.0753 66.6052 9.79647 64.9991 7.39867 62.6013C5.00087 60.2035 3.39484 56.9247 2.39177 52.4113C1.38618 47.8865 1 42.1828 1 35H-1C-1 42.2284 -0.613988 48.1053 0.439403 52.8452C1.49532 57.5964 3.23507 61.2662 5.98446 64.0155C8.73385 66.7649 12.4036 68.5047 17.1548 69.5606C21.8947 70.614 27.7716 71 35 71V69ZM69 35C69 42.1828 68.6138 47.8865 67.6082 52.4113C66.6052 56.9247 64.9991 60.2035 62.6013 62.6013C60.2035 64.9991 56.9247 66.6052 52.4113 67.6082C47.8865 68.6138 42.1828 69 35 69V71C42.2284 71 48.1053 70.614 52.8452 69.5606C57.5964 68.5047 61.2662 66.7649 64.0155 64.0155C66.7649 61.2662 68.5047 57.5964 69.5606 52.8452C70.614 48.1053 71 42.2284 71 35H69ZM35 1C42.1828 1 47.8865 1.38618 52.4113 2.39177C56.9247 3.39484 60.2035 5.00087 62.6013 7.39867C64.9991 9.79647 66.6052 13.0753 67.6082 17.5887C68.6138 22.1135 69 27.8172 69 35H71C71 27.7716 70.614 21.8947 69.5606 17.1548C68.5047 12.4036 66.7649 8.73385 64.0155 5.98446C61.2662 3.23507 57.5964 1.49532 52.8452 0.439403C48.1053 -0.613988 42.2284 -1 35 -1V1ZM26.76 46.0422V22.2539H24.76V46.0422H26.76ZM36.8851 45.0422H25.76V47.0422H36.8851V45.0422ZM43.9399 38.9777C43.9399 42.4077 41.0559 45.0422 36.8851 45.0422V47.0422C41.889 47.0422 45.9399 43.7655 45.9399 38.9777H43.9399ZM42.7379 35.6465C43.4995 36.4841 43.9399 37.583 43.9399 38.9777H45.9399C45.9399 37.1264 45.3406 35.536 44.2177 34.301L42.7379 35.6465ZM40.5915 34.2099C41.4903 34.5739 42.206 35.0614 42.7379 35.6465L44.2177 34.301C43.4538 33.4608 42.4743 32.8145 41.342 32.3561L40.5915 34.2099ZM41.3127 30.3965C41.1517 31.2504 40.7936 31.9818 40.2241 32.6133L41.7094 33.9527C42.5321 33.0404 43.0511 31.971 43.2781 30.7669L41.3127 30.3965ZM41.4115 29.2822C41.4115 29.6795 41.3778 30.0504 41.3126 30.3966L43.2781 30.7668C43.3682 30.2881 43.4115 29.7926 43.4115 29.2822H41.4115ZM34.3567 23.2539C38.5382 23.2539 41.4115 25.8256 41.4115 29.2822H43.4115C43.4115 24.449 39.3496 21.2539 34.3567 21.2539V23.2539ZM25.76 23.2539H34.3567V21.2539H25.76V23.2539ZM44.3162 32.9912C44.7665 33.3835 45.1728 33.8256 45.5257 34.32L47.1536 33.1582C46.7058 32.5308 46.1927 31.9735 45.6299 31.4832L44.3162 32.9912ZM44.4216 29.2822C44.4216 30.2122 44.2908 31.0993 44.0218 31.9287L45.9242 32.5458C46.2642 31.4975 46.4216 30.4001 46.4216 29.2822H44.4216ZM34.3567 20.2503C39.7786 20.2503 44.4216 23.7747 44.4216 29.2822H46.4216C46.4216 22.3764 40.5646 18.2503 34.3567 18.2503V20.2503ZM22.75 20.2503H34.3567V18.2503H22.75V20.2503ZM23.75 49.0457V19.2503H21.75V49.0457H23.75ZM36.8851 48.0457H22.75V50.0457H36.8851V48.0457ZM46.95 38.9777C46.95 44.4312 42.3278 48.0457 36.8851 48.0457V50.0457C43.1374 50.0457 48.95 45.8093 48.95 38.9777H46.95ZM45.5257 34.3201C46.4724 35.6462 46.95 37.2326 46.95 38.9777H48.95C48.95 36.8571 48.3651 34.8554 47.1535 33.1581L45.5257 34.3201ZM34.499 30.6031C34.347 30.6392 34.1676 30.6611 33.9593 30.6611V32.6611C34.307 32.6611 34.6426 32.6246 34.9609 32.5491L34.499 30.6031ZM35.3433 29.5706C35.3433 29.8835 35.2553 30.0957 35.1392 30.24C35.0219 30.3858 34.8243 30.5259 34.4991 30.6031L34.9608 32.5491C35.6531 32.3848 36.2622 32.0345 36.6972 31.4941C37.1334 30.9522 37.3433 30.2824 37.3433 29.5706H35.3433ZM34.4991 28.5381C34.8243 28.6152 35.0219 28.7553 35.1392 28.9011C35.2553 29.0454 35.3433 29.2576 35.3433 29.5706H37.3433C37.3433 28.8588 37.1334 28.189 36.6972 27.647C36.2622 27.1066 35.653 26.7563 34.9607 26.5921L34.4991 28.5381ZM33.9593 28.4801C34.1676 28.4801 34.347 28.502 34.499 28.5381L34.9609 26.5921C34.6426 26.5166 34.307 26.4801 33.9593 26.4801V28.4801ZM31.7199 28.4801H33.9593V26.4801H31.7199V28.4801ZM32.7199 31.6611V27.4801H30.7199V31.6611H32.7199ZM33.9593 30.6611H31.7199V32.6611H33.9593V30.6611ZM35.9482 38.5082C35.8485 38.4085 35.7428 38.2597 35.6892 38.0591C35.6347 37.8551 35.6518 37.6631 35.6991 37.5085C35.7815 37.2393 35.9518 37.0878 35.9991 37.0466C36.1152 36.9457 36.2282 36.8969 36.2417 36.8907C36.3053 36.8618 36.3581 36.8464 36.3673 36.8436C36.4021 36.8331 36.4295 36.8271 36.4383 36.8252C36.4625 36.8199 36.4808 36.8169 36.4901 36.8154L36.7943 38.7922C36.8127 38.7893 36.8378 38.7851 36.8663 38.7788C36.8772 38.7764 36.9062 38.77 36.942 38.7592C36.9518 38.7563 37.0049 38.7407 37.0687 38.7117C37.0824 38.7055 37.1955 38.6567 37.3116 38.5557C37.3589 38.5145 37.5292 38.3629 37.6116 38.0937C37.6589 37.9391 37.676 37.7472 37.6215 37.5431C37.5679 37.3425 37.4622 37.1937 37.3625 37.094L35.9482 38.5082ZM36.8844 38.774C36.874 38.7766 36.8593 38.78 36.841 38.7836C36.8329 38.7851 36.8174 38.788 36.7976 38.7909C36.7894 38.7921 36.7682 38.7951 36.7408 38.7974C36.7292 38.7984 36.6985 38.8009 36.6591 38.8011C36.6405 38.8012 36.6015 38.8009 36.5524 38.7958C36.5274 38.7932 36.488 38.7882 36.4404 38.7777C36.3988 38.7686 36.3138 38.7474 36.2149 38.6989L37.0958 36.9033C36.9269 36.8205 36.7759 36.8082 36.7583 36.8064C36.7091 36.8013 36.6701 36.801 36.6514 36.8011C36.612 36.8013 36.5811 36.8038 36.5693 36.8048C36.5416 36.8072 36.5199 36.8102 36.5112 36.8115C36.4902 36.8145 36.4731 36.8177 36.4627 36.8197C36.44 36.8241 36.4189 36.8289 36.4 36.8336L36.8844 38.774ZM36.4905 40.6356C36.4848 40.6347 36.4697 40.6323 36.449 40.628C36.4421 40.6266 36.416 40.6212 36.3827 40.6118C36.3744 40.6094 36.3214 40.5949 36.2575 40.5672C36.2445 40.5615 36.1286 40.514 36.0093 40.413C35.9603 40.3716 35.7846 40.2191 35.6999 39.9449C35.6513 39.7876 35.635 39.5952 35.689 39.3925C35.7418 39.1941 35.8454 39.0474 35.9415 38.9494L37.3692 40.3501C37.4653 40.2521 37.5689 40.1054 37.6217 39.907C37.6757 39.7043 37.6594 39.5119 37.6108 39.3546C37.5261 39.0804 37.3504 38.9279 37.3014 38.8864C37.182 38.7854 37.0661 38.7378 37.053 38.7322C36.9888 38.7043 36.9355 38.6897 36.9267 38.6872C36.8923 38.6775 36.8647 38.6717 36.8556 38.6698C36.8305 38.6646 36.8088 38.661 36.7939 38.6587L36.4905 40.6356ZM35.955 38.936C36.1269 38.7674 36.3109 38.7091 36.3675 38.6921C36.4456 38.6686 36.5098 38.6599 36.5425 38.6562C36.6097 38.6486 36.6626 38.6496 36.6821 38.6502C36.7279 38.6514 36.7633 38.6556 36.7748 38.657C36.8043 38.6606 36.8269 38.6647 36.8359 38.6664C36.8579 38.6705 36.8746 38.6745 36.884 38.6768L36.4004 40.6175C36.4183 40.6219 36.4414 40.6273 36.4679 40.6323C36.479 40.6343 36.5033 40.6387 36.534 40.6425C36.5461 40.6439 36.582 40.6482 36.628 40.6494C36.6478 40.65 36.7008 40.651 36.768 40.6434C36.8008 40.6397 36.8651 40.6309 36.9431 40.6075C36.9997 40.5905 37.1838 40.5322 37.3557 40.3636L35.955 38.936ZM36.4878 41.816C37.3648 41.816 38.2252 41.615 38.8802 41.0619C39.5635 40.485 39.8717 39.6546 39.8717 38.7255H37.8717C37.8717 39.202 37.7284 39.4169 37.59 39.5338C37.4233 39.6745 37.0917 39.816 36.4878 39.816V41.816ZM31.7199 41.816H36.4878V39.816H31.7199V41.816ZM30.7199 36.635V40.816H32.7199V36.635H30.7199ZM36.4878 35.635H31.7199V37.635H36.4878V35.635ZM39.8717 38.7255C39.8717 37.7963 39.5635 36.966 38.8802 36.389C38.2252 35.8359 37.3648 35.635 36.4878 35.635V37.635C37.0917 37.635 37.4233 37.7764 37.59 37.9172C37.7284 38.0341 37.8717 38.249 37.8717 38.7255H39.8717Z" fill="black" mask="url(#path-1-inside-1_2_22)"/>
<path d="M25.76 46.0422H24.76V47.0422H25.76V46.0422ZM25.76 22.2539V21.2539H24.76V22.2539H25.76ZM43.4778 34.9737L42.7379 35.6465L42.7379 35.6465L43.4778 34.9737ZM40.9667 33.283L40.2241 32.6133L39.2677 33.6739L40.5915 34.2099L40.9667 33.283ZM42.2954 30.5817L43.2781 30.7669L43.2781 30.7668L42.2954 30.5817ZM44.973 32.2372L44.0218 31.9287L43.8179 32.5572L44.3162 32.9912L44.973 32.2372ZM46.3396 33.7391L45.5257 34.32L45.5257 34.3201L46.3396 33.7391ZM22.75 19.2503V18.2503H21.75V19.2503H22.75ZM22.75 49.0457H21.75V50.0457H22.75V49.0457ZM34.7299 31.5761L34.4991 30.6031L34.499 30.6031L34.7299 31.5761ZM34.7299 27.5651L34.499 28.5381L34.4991 28.5381L34.7299 27.5651ZM31.7199 27.4801V26.4801H30.7199V27.4801H31.7199ZM31.7199 31.6611H30.7199V32.6611H31.7199V31.6611ZM36.6554 37.8011L37.3625 37.094L37.245 36.9765L37.0958 36.9033L36.6554 37.8011ZM36.6422 37.8038L36.4 36.8336L36.7943 38.7922L36.6422 37.8038ZM36.6422 39.6472L36.7939 38.6587L36.4004 40.6175L36.6422 39.6472ZM36.6554 39.6498L37.3557 40.3636L37.3625 40.3569L37.3692 40.3501L36.6554 39.6498ZM31.7199 40.816H30.7199V41.816H31.7199V40.816ZM31.7199 36.635V35.635H30.7199V36.635H31.7199ZM1 35C1 27.8172 1.38618 22.1135 2.39177 17.5887C3.39484 13.0753 5.00087 9.79647 7.39867 7.39867C9.79647 5.00087 13.0753 3.39484 17.5887 2.39177C22.1135 1.38618 27.8172 1 35 1V-1C27.7716 -1 21.8947 -0.613988 17.1548 0.439403C12.4036 1.49532 8.73385 3.23507 5.98446 5.98446C3.23507 8.73385 1.49532 12.4036 0.439403 17.1548C-0.613988 21.8947 -1 27.7716 -1 35H1ZM35 69C27.8172 69 22.1135 68.6138 17.5887 67.6082C13.0753 66.6052 9.79647 64.9991 7.39867 62.6013C5.00087 60.2035 3.39484 56.9247 2.39177 52.4113C1.38618 47.8865 1 42.1828 1 35H-1C-1 42.2284 -0.613988 48.1053 0.439403 52.8452C1.49532 57.5964 3.23507 61.2662 5.98446 64.0155C8.73385 66.7649 12.4036 68.5047 17.1548 69.5606C21.8947 70.614 27.7716 71 35 71V69ZM69 35C69 42.1828 68.6138 47.8865 67.6082 52.4113C66.6052 56.9247 64.9991 60.2035 62.6013 62.6013C60.2035 64.9991 56.9247 66.6052 52.4113 67.6082C47.8865 68.6138 42.1828 69 35 69V71C42.2284 71 48.1053 70.614 52.8452 69.5606C57.5964 68.5047 61.2662 66.7649 64.0155 64.0155C66.7649 61.2662 68.5047 57.5964 69.5606 52.8452C70.614 48.1053 71 42.2284 71 35H69ZM35 1C42.1828 1 47.8865 1.38618 52.4113 2.39177C56.9247 3.39484 60.2035 5.00087 62.6013 7.39867C64.9991 9.79647 66.6052 13.0753 67.6082 17.5887C68.6138 22.1135 69 27.8172 69 35H71C71 27.7716 70.614 21.8947 69.5606 17.1548C68.5047 12.4036 66.7649 8.73385 64.0155 5.98446C61.2662 3.23507 57.5964 1.49532 52.8452 0.439403C48.1053 -0.613988 42.2284 -1 35 -1V1ZM26.76 46.0422V22.2539H24.76V46.0422H26.76ZM36.8851 45.0422H25.76V47.0422H36.8851V45.0422ZM43.9399 38.9777C43.9399 42.4077 41.0559 45.0422 36.8851 45.0422V47.0422C41.889 47.0422 45.9399 43.7655 45.9399 38.9777H43.9399ZM42.7379 35.6465C43.4995 36.4841 43.9399 37.583 43.9399 38.9777H45.9399C45.9399 37.1264 45.3406 35.536 44.2177 34.301L42.7379 35.6465ZM40.5915 34.2099C41.4903 34.5739 42.206 35.0614 42.7379 35.6465L44.2177 34.301C43.4538 33.4608 42.4743 32.8145 41.342 32.3561L40.5915 34.2099ZM41.3127 30.3965C41.1517 31.2504 40.7936 31.9818 40.2241 32.6133L41.7094 33.9527C42.5321 33.0404 43.0511 31.971 43.2781 30.7669L41.3127 30.3965ZM41.4115 29.2822C41.4115 29.6795 41.3778 30.0504 41.3126 30.3966L43.2781 30.7668C43.3682 30.2881 43.4115 29.7926 43.4115 29.2822H41.4115ZM34.3567 23.2539C38.5382 23.2539 41.4115 25.8256 41.4115 29.2822H43.4115C43.4115 24.449 39.3496 21.2539 34.3567 21.2539V23.2539ZM25.76 23.2539H34.3567V21.2539H25.76V23.2539ZM44.3162 32.9912C44.7665 33.3835 45.1728 33.8256 45.5257 34.32L47.1536 33.1582C46.7058 32.5308 46.1927 31.9735 45.6299 31.4832L44.3162 32.9912ZM44.4216 29.2822C44.4216 30.2122 44.2908 31.0993 44.0218 31.9287L45.9242 32.5458C46.2642 31.4975 46.4216 30.4001 46.4216 29.2822H44.4216ZM34.3567 20.2503C39.7786 20.2503 44.4216 23.7747 44.4216 29.2822H46.4216C46.4216 22.3764 40.5646 18.2503 34.3567 18.2503V20.2503ZM22.75 20.2503H34.3567V18.2503H22.75V20.2503ZM23.75 49.0457V19.2503H21.75V49.0457H23.75ZM36.8851 48.0457H22.75V50.0457H36.8851V48.0457ZM46.95 38.9777C46.95 44.4312 42.3278 48.0457 36.8851 48.0457V50.0457C43.1374 50.0457 48.95 45.8093 48.95 38.9777H46.95ZM45.5257 34.3201C46.4724 35.6462 46.95 37.2326 46.95 38.9777H48.95C48.95 36.8571 48.3651 34.8554 47.1535 33.1581L45.5257 34.3201ZM34.499 30.6031C34.347 30.6392 34.1676 30.6611 33.9593 30.6611V32.6611C34.307 32.6611 34.6426 32.6246 34.9609 32.5491L34.499 30.6031ZM35.3433 29.5706C35.3433 29.8835 35.2553 30.0957 35.1392 30.24C35.0219 30.3858 34.8243 30.5259 34.4991 30.6031L34.9608 32.5491C35.6531 32.3848 36.2622 32.0345 36.6972 31.4941C37.1334 30.9522 37.3433 30.2824 37.3433 29.5706H35.3433ZM34.4991 28.5381C34.8243 28.6152 35.0219 28.7553 35.1392 28.9011C35.2553 29.0454 35.3433 29.2576 35.3433 29.5706H37.3433C37.3433 28.8588 37.1334 28.189 36.6972 27.647C36.2622 27.1066 35.653 26.7563 34.9607 26.5921L34.4991 28.5381ZM33.9593 28.4801C34.1676 28.4801 34.347 28.502 34.499 28.5381L34.9609 26.5921C34.6426 26.5166 34.307 26.4801 33.9593 26.4801V28.4801ZM31.7199 28.4801H33.9593V26.4801H31.7199V28.4801ZM32.7199 31.6611V27.4801H30.7199V31.6611H32.7199ZM33.9593 30.6611H31.7199V32.6611H33.9593V30.6611ZM35.9482 38.5082C35.8485 38.4085 35.7428 38.2597 35.6892 38.0591C35.6347 37.8551 35.6518 37.6631 35.6991 37.5085C35.7815 37.2393 35.9518 37.0878 35.9991 37.0466C36.1152 36.9457 36.2282 36.8969 36.2417 36.8907C36.3053 36.8618 36.3581 36.8464 36.3673 36.8436C36.4021 36.8331 36.4295 36.8271 36.4383 36.8252C36.4625 36.8199 36.4808 36.8169 36.4901 36.8154L36.7943 38.7922C36.8127 38.7893 36.8378 38.7851 36.8663 38.7788C36.8772 38.7764 36.9062 38.77 36.942 38.7592C36.9518 38.7563 37.0049 38.7407 37.0687 38.7117C37.0824 38.7055 37.1955 38.6567 37.3116 38.5557C37.3589 38.5145 37.5292 38.3629 37.6116 38.0937C37.6589 37.9391 37.676 37.7472 37.6215 37.5431C37.5679 37.3425 37.4622 37.1937 37.3625 37.094L35.9482 38.5082ZM36.8844 38.774C36.874 38.7766 36.8593 38.78 36.841 38.7836C36.8329 38.7851 36.8174 38.788 36.7976 38.7909C36.7894 38.7921 36.7682 38.7951 36.7408 38.7974C36.7292 38.7984 36.6985 38.8009 36.6591 38.8011C36.6405 38.8012 36.6015 38.8009 36.5524 38.7958C36.5274 38.7932 36.488 38.7882 36.4404 38.7777C36.3988 38.7686 36.3138 38.7474 36.2149 38.6989L37.0958 36.9033C36.9269 36.8205 36.7759 36.8082 36.7583 36.8064C36.7091 36.8013 36.6701 36.801 36.6514 36.8011C36.612 36.8013 36.5811 36.8038 36.5693 36.8048C36.5416 36.8072 36.5199 36.8102 36.5112 36.8115C36.4902 36.8145 36.4731 36.8177 36.4627 36.8197C36.44 36.8241 36.4189 36.8289 36.4 36.8336L36.8844 38.774ZM36.4905 40.6356C36.4848 40.6347 36.4697 40.6323 36.449 40.628C36.4421 40.6266 36.416 40.6212 36.3827 40.6118C36.3744 40.6094 36.3214 40.5949 36.2575 40.5672C36.2445 40.5615 36.1286 40.514 36.0093 40.413C35.9603 40.3716 35.7846 40.2191 35.6999 39.9449C35.6513 39.7876 35.635 39.5952 35.689 39.3925C35.7418 39.1941 35.8454 39.0474 35.9415 38.9494L37.3692 40.3501C37.4653 40.2521 37.5689 40.1054 37.6217 39.907C37.6757 39.7043 37.6594 39.5119 37.6108 39.3546C37.5261 39.0804 37.3504 38.9279 37.3014 38.8864C37.182 38.7854 37.0661 38.7378 37.053 38.7322C36.9888 38.7043 36.9355 38.6897 36.9267 38.6872C36.8923 38.6775 36.8647 38.6717 36.8556 38.6698C36.8305 38.6646 36.8088 38.661 36.7939 38.6587L36.4905 40.6356ZM35.955 38.936C36.1269 38.7674 36.3109 38.7091 36.3675 38.6921C36.4456 38.6686 36.5098 38.6599 36.5425 38.6562C36.6097 38.6486 36.6626 38.6496 36.6821 38.6502C36.7279 38.6514 36.7633 38.6556 36.7748 38.657C36.8043 38.6606 36.8269 38.6647 36.8359 38.6664C36.8579 38.6705 36.8746 38.6745 36.884 38.6768L36.4004 40.6175C36.4183 40.6219 36.4414 40.6273 36.4679 40.6323C36.479 40.6343 36.5033 40.6387 36.534 40.6425C36.5461 40.6439 36.582 40.6482 36.628 40.6494C36.6478 40.65 36.7008 40.651 36.768 40.6434C36.8008 40.6397 36.8651 40.6309 36.9431 40.6075C36.9997 40.5905 37.1838 40.5322 37.3557 40.3636L35.955 38.936ZM36.4878 41.816C37.3648 41.816 38.2252 41.615 38.8802 41.0619C39.5635 40.485 39.8717 39.6546 39.8717 38.7255H37.8717C37.8717 39.202 37.7284 39.4169 37.59 39.5338C37.4233 39.6745 37.0917 39.816 36.4878 39.816V41.816ZM31.7199 41.816H36.4878V39.816H31.7199V41.816ZM30.7199 36.635V40.816H32.7199V36.635H30.7199ZM36.4878 35.635H31.7199V37.635H36.4878V35.635ZM39.8717 38.7255C39.8717 37.7963 39.5635 36.966 38.8802 36.389C38.2252 35.8359 37.3648 35.635 36.4878 35.635V37.635C37.0917 37.635 37.4233 37.7764 37.59 37.9172C37.7284 38.0341 37.8717 38.249 37.8717 38.7255H39.8717Z" fill="black" fill-opacity="0.2" mask="url(#path-1-inside-1_2_22)"/>
<path d="M102.08 34.295C104.227 35.5317 105.3 37.3983 105.3 39.895C105.3 41.9717 104.565 43.675 103.095 45.005C101.625 46.335 99.8167 47 97.67 47H87.275V22.5H96.935C99.035 22.5 100.797 23.1533 102.22 24.46C103.667 25.7433 104.39 27.3883 104.39 29.395C104.39 31.425 103.62 33.0583 102.08 34.295ZM96.935 27.015H92.105V32.405H96.935C97.6817 32.405 98.3 32.1483 98.79 31.635C99.3033 31.1217 99.56 30.48 99.56 29.71C99.56 28.94 99.315 28.2983 98.825 27.785C98.335 27.2717 97.705 27.015 96.935 27.015ZM97.67 42.485C98.4867 42.485 99.1633 42.2167 99.7 41.68C100.237 41.12 100.505 40.42 100.505 39.58C100.505 38.7633 100.237 38.0867 99.7 37.55C99.1633 36.99 98.4867 36.71 97.67 36.71H92.105V42.485H97.67ZM123.44 44.83C121.643 46.6033 119.45 47.49 116.86 47.49C114.27 47.49 112.077 46.6033 110.28 44.83C108.507 43.0333 107.62 40.84 107.62 38.25C107.62 35.66 108.507 33.4783 110.28 31.705C112.077 29.9083 114.27 29.01 116.86 29.01C119.45 29.01 121.643 29.9083 123.44 31.705C125.237 33.4783 126.135 35.66 126.135 38.25C126.135 40.84 125.237 43.0333 123.44 44.83ZM113.465 41.715C114.375 42.625 115.507 43.08 116.86 43.08C118.213 43.08 119.345 42.625 120.255 41.715C121.165 40.805 121.62 39.65 121.62 38.25C121.62 36.85 121.165 35.695 120.255 34.785C119.345 33.875 118.213 33.42 116.86 33.42C115.507 33.42 114.375 33.875 113.465 34.785C112.578 35.695 112.135 36.85 112.135 38.25C112.135 39.65 112.578 40.805 113.465 41.715ZM139.496 29.01C141.853 29.01 143.859 29.9083 145.516 31.705C147.196 33.4783 148.036 35.66 148.036 38.25C148.036 40.84 147.196 43.0333 145.516 44.83C143.859 46.6033 141.853 47.49 139.496 47.49C137.046 47.49 135.156 46.6383 133.826 44.935V47H129.311V22.5H133.826V31.565C135.156 29.8617 137.046 29.01 139.496 29.01ZM135.191 41.82C136.101 42.73 137.256 43.185 138.656 43.185C140.056 43.185 141.211 42.73 142.121 41.82C143.054 40.8867 143.521 39.6967 143.521 38.25C143.521 36.8033 143.054 35.625 142.121 34.715C141.211 33.7817 140.056 33.315 138.656 33.315C137.256 33.315 136.101 33.7817 135.191 34.715C134.281 35.625 133.826 36.8033 133.826 38.25C133.826 39.6967 134.281 40.8867 135.191 41.82ZM162.77 29.5H167.285V47H162.77V45.04C161.674 46.6733 159.935 47.49 157.555 47.49C155.642 47.49 154.055 46.8483 152.795 45.565C151.559 44.2817 150.94 42.5083 150.94 40.245V29.5H155.455V39.685C155.455 40.8517 155.77 41.75 156.4 42.38C157.03 42.9867 157.87 43.29 158.92 43.29C160.087 43.29 161.02 42.9283 161.72 42.205C162.42 41.4817 162.77 40.3967 162.77 38.95V29.5ZM175.935 32.51C176.355 31.39 177.044 30.55 178 29.99C178.98 29.43 180.065 29.15 181.255 29.15V34.19C179.879 34.0267 178.642 34.3067 177.545 35.03C176.472 35.7533 175.935 36.955 175.935 38.635V47H171.42V29.5H175.935V32.51Z" fill="white"/>
<path d="M102.08 34.295L101.454 33.5153L100.313 34.4313L101.581 35.1615L102.08 34.295ZM103.095 45.005L102.424 44.2635L102.424 44.2635L103.095 45.005ZM87.275 47H86.275V48H87.275V47ZM87.275 22.5V21.5H86.275V22.5H87.275ZM102.22 24.46L101.544 25.1967L101.55 25.2024L101.556 25.2081L102.22 24.46ZM92.105 27.015V26.015H91.105V27.015H92.105ZM92.105 32.405H91.105V33.405H92.105V32.405ZM98.79 31.635L98.0829 30.9279L98.0747 30.9361L98.0666 30.9445L98.79 31.635ZM99.7 41.68L100.407 42.3871L100.415 42.3796L100.422 42.3719L99.7 41.68ZM99.7 37.55L98.978 38.2419L98.9854 38.2496L98.9929 38.2571L99.7 37.55ZM92.105 36.71V35.71H91.105V36.71H92.105ZM92.105 42.485H91.105V43.485H92.105V42.485ZM101.581 35.1615C103.415 36.2179 104.3 37.7525 104.3 39.895H106.3C106.3 37.0442 105.039 34.8454 102.579 33.4285L101.581 35.1615ZM104.3 39.895C104.3 41.7043 103.674 43.133 102.424 44.2635L103.766 45.7465C105.456 44.217 106.3 42.239 106.3 39.895H104.3ZM102.424 44.2635C101.154 45.4127 99.5911 46 97.67 46V48C100.042 48 102.096 47.2573 103.766 45.7465L102.424 44.2635ZM97.67 46H87.275V48H97.67V46ZM88.275 47V22.5H86.275V47H88.275ZM87.275 23.5H96.935V21.5H87.275V23.5ZM96.935 23.5C98.8082 23.5 100.322 24.0747 101.544 25.1967L102.896 23.7233C101.272 22.232 99.2618 21.5 96.935 21.5V23.5ZM101.556 25.2081C102.78 26.2936 103.39 27.6621 103.39 29.395H105.39C105.39 27.1146 104.553 25.193 102.884 23.7119L101.556 25.2081ZM103.39 29.395C103.39 31.1317 102.75 32.4745 101.454 33.5153L102.706 35.0747C104.49 33.6422 105.39 31.7183 105.39 29.395H103.39ZM96.935 26.015H92.105V28.015H96.935V26.015ZM91.105 27.015V32.405H93.105V27.015H91.105ZM92.105 33.405H96.935V31.405H92.105V33.405ZM96.935 33.405C97.939 33.405 98.8239 33.0478 99.5134 32.3255L98.0666 30.9445C97.7761 31.2489 97.4244 31.405 96.935 31.405V33.405ZM99.4971 32.3421C100.21 31.629 100.56 30.7274 100.56 29.71H98.56C98.56 30.2326 98.3964 30.6144 98.0829 30.9279L99.4971 32.3421ZM100.56 29.71C100.56 28.7068 100.232 27.8105 99.5484 27.0945L98.1016 28.4755C98.3982 28.7862 98.56 29.1732 98.56 29.71H100.56ZM99.5484 27.0945C98.8525 26.3656 97.9525 26.015 96.935 26.015V28.015C97.4575 28.015 97.8175 28.1778 98.1016 28.4755L99.5484 27.0945ZM97.67 43.485C98.7296 43.485 99.6677 43.1265 100.407 42.3871L98.9929 40.9729C98.659 41.3068 98.2437 41.485 97.67 41.485V43.485ZM100.422 42.3719C101.153 41.6095 101.505 40.6544 101.505 39.58H99.505C99.505 40.1856 99.3207 40.6305 98.978 40.9881L100.422 42.3719ZM101.505 39.58C101.505 38.5204 101.147 37.5823 100.407 36.8429L98.9929 38.2571C99.3268 38.591 99.505 39.0063 99.505 39.58H101.505ZM100.422 36.8581C99.6858 36.0899 98.7431 35.71 97.67 35.71V37.71C98.2302 37.71 98.6408 37.8901 98.978 38.2419L100.422 36.8581ZM97.67 35.71H92.105V37.71H97.67V35.71ZM91.105 36.71V42.485H93.105V36.71H91.105ZM92.105 43.485H97.67V41.485H92.105V43.485ZM123.44 44.83L124.142 45.5417L124.147 45.5371L123.44 44.83ZM110.28 44.83L109.568 45.5325L109.577 45.5417L110.28 44.83ZM110.28 31.705L110.987 32.4121L110.987 32.4121L110.28 31.705ZM123.44 31.705L122.733 32.4121L122.737 32.4167L123.44 31.705ZM113.465 41.715L112.749 42.4129L112.758 42.4221L113.465 41.715ZM113.465 34.785L112.758 34.0778L112.749 34.0871L113.465 34.785ZM122.737 44.1183C121.133 45.7016 119.195 46.49 116.86 46.49V48.49C119.705 48.49 122.153 47.5051 124.142 45.5417L122.737 44.1183ZM116.86 46.49C114.525 46.49 112.586 45.7016 110.982 44.1183L109.577 45.5417C111.567 47.5051 114.015 48.49 116.86 48.49V46.49ZM110.992 44.1275C109.408 42.5234 108.62 40.5847 108.62 38.25H106.62C106.62 41.0953 107.605 43.5433 109.568 45.5325L110.992 44.1275ZM108.62 38.25C108.62 35.9155 109.408 33.9911 110.987 32.4121L109.573 30.9979C107.605 32.9655 106.62 35.4045 106.62 38.25H108.62ZM110.987 32.4121C112.592 30.807 114.529 30.01 116.86 30.01V28.01C114.01 28.01 111.561 29.0097 109.573 30.9979L110.987 32.4121ZM116.86 30.01C119.19 30.01 121.128 30.807 122.733 32.4121L124.147 30.9979C122.159 29.0097 119.709 28.01 116.86 28.01V30.01ZM122.737 32.4167C124.338 33.9967 125.135 35.9197 125.135 38.25H127.135C127.135 35.4003 126.135 32.9599 124.142 30.9933L122.737 32.4167ZM125.135 38.25C125.135 40.5805 124.338 42.5178 122.733 44.1229L124.147 45.5371C126.135 43.5489 127.135 41.0995 127.135 38.25H125.135ZM112.758 42.4221C113.866 43.5301 115.257 44.08 116.86 44.08V42.08C115.757 42.08 114.884 41.7199 114.172 41.0079L112.758 42.4221ZM116.86 44.08C118.463 44.08 119.854 43.5301 120.962 42.4221L119.548 41.0079C118.836 41.7199 117.963 42.08 116.86 42.08V44.08ZM120.962 42.4221C122.077 41.3072 122.62 39.8895 122.62 38.25H120.62C120.62 39.4105 120.253 40.3028 119.548 41.0079L120.962 42.4221ZM122.62 38.25C122.62 36.6105 122.077 35.1928 120.962 34.0779L119.548 35.4921C120.253 36.1972 120.62 37.0895 120.62 38.25H122.62ZM120.962 34.0779C119.854 32.9699 118.463 32.42 116.86 32.42V34.42C117.963 34.42 118.836 34.7801 119.548 35.4921L120.962 34.0779ZM116.86 32.42C115.257 32.42 113.866 32.9699 112.758 34.0779L114.172 35.4921C114.884 34.7801 115.757 34.42 116.86 34.42V32.42ZM112.749 34.0871C111.661 35.2037 111.135 36.6183 111.135 38.25H113.135C113.135 37.0817 113.496 36.1863 114.181 35.4829L112.749 34.0871ZM111.135 38.25C111.135 39.8817 111.661 41.2963 112.749 42.4129L114.181 41.0171C113.496 40.3137 113.135 39.4183 113.135 38.25H111.135ZM145.516 31.705L144.781 32.3829L144.79 32.3927L145.516 31.705ZM145.516 44.83L144.786 44.147L144.785 44.1473L145.516 44.83ZM133.826 44.935L134.614 44.3196L132.826 42.0294V44.935H133.826ZM133.826 47V48H134.826V47H133.826ZM129.311 47H128.311V48H129.311V47ZM129.311 22.5V21.5H128.311V22.5H129.311ZM133.826 22.5H134.826V21.5H133.826V22.5ZM133.826 31.565H132.826V34.4706L134.614 32.1804L133.826 31.565ZM135.191 41.82L134.475 42.5182L134.484 42.5271L135.191 41.82ZM142.121 41.82L141.414 41.1129L141.414 41.1129L142.121 41.82ZM142.121 34.715L141.405 35.4131L141.414 35.4222L141.423 35.431L142.121 34.715ZM135.191 34.715L135.898 35.4222L135.907 35.4131L135.191 34.715ZM139.496 30.01C141.562 30.01 143.306 30.7829 144.781 32.3829L146.251 31.0271C144.413 29.0337 142.144 28.01 139.496 28.01V30.01ZM144.79 32.3927C146.283 33.9684 147.036 35.8989 147.036 38.25H149.036C149.036 35.4211 148.109 32.9883 146.242 31.0173L144.79 32.3927ZM147.036 38.25C147.036 40.6012 146.283 42.5461 144.786 44.147L146.247 45.513C148.11 43.5206 149.036 41.0788 149.036 38.25H147.036ZM144.785 44.1473C143.311 45.7251 141.567 46.49 139.496 46.49V48.49C142.139 48.49 144.407 47.4816 146.247 45.5127L144.785 44.1473ZM139.496 46.49C137.307 46.49 135.728 45.7456 134.614 44.3196L133.038 45.5504C134.584 47.5311 136.785 48.49 139.496 48.49V46.49ZM132.826 44.935V47H134.826V44.935H132.826ZM133.826 46H129.311V48H133.826V46ZM130.311 47V22.5H128.311V47H130.311ZM129.311 23.5H133.826V21.5H129.311V23.5ZM132.826 22.5V31.565H134.826V22.5H132.826ZM134.614 32.1804C135.728 30.7544 137.307 30.01 139.496 30.01V28.01C136.785 28.01 134.584 28.9689 133.038 30.9496L134.614 32.1804ZM134.484 42.5271C135.599 43.6421 137.017 44.185 138.656 44.185V42.185C137.496 42.185 136.603 41.8179 135.898 41.1129L134.484 42.5271ZM138.656 44.185C140.296 44.185 141.713 43.6421 142.828 42.5271L141.414 41.1129C140.709 41.8179 139.817 42.185 138.656 42.185V44.185ZM142.828 42.5271C143.968 41.3873 144.521 39.9339 144.521 38.25H142.521C142.521 39.4595 142.141 40.386 141.414 41.1129L142.828 42.5271ZM144.521 38.25C144.521 36.5663 143.968 35.1188 142.819 33.999L141.423 35.431C142.141 36.1312 142.521 37.0404 142.521 38.25H144.521ZM142.837 34.0169C141.724 32.8752 140.304 32.315 138.656 32.315V34.315C139.809 34.315 140.698 34.6881 141.405 35.4131L142.837 34.0169ZM138.656 32.315C137.009 32.315 135.588 32.8752 134.475 34.0169L135.907 35.4131C136.614 34.6881 137.504 34.315 138.656 34.315V32.315ZM134.484 34.0079C133.362 35.1294 132.826 36.5741 132.826 38.25H134.826C134.826 37.0326 135.2 36.1206 135.898 35.4221L134.484 34.0079ZM132.826 38.25C132.826 39.9262 133.362 41.3768 134.475 42.5181L135.907 41.1219C135.2 40.3966 134.826 39.4671 134.826 38.25H132.826ZM162.77 29.5V28.5H161.77V29.5H162.77ZM167.285 29.5H168.285V28.5H167.285V29.5ZM167.285 47V48H168.285V47H167.285ZM162.77 47H161.77V48H162.77V47ZM162.77 45.04H163.77V41.7567L161.94 44.4826L162.77 45.04ZM152.795 45.565L152.075 46.2589L152.082 46.2656L152.795 45.565ZM150.94 29.5V28.5H149.94V29.5H150.94ZM155.455 29.5H156.455V28.5H155.455V29.5ZM156.4 42.38L155.693 43.0871L155.7 43.0938L155.707 43.1003L156.4 42.38ZM161.72 42.205L161.002 41.5096L161.72 42.205ZM162.77 30.5H167.285V28.5H162.77V30.5ZM166.285 29.5V47H168.285V29.5H166.285ZM167.285 46H162.77V48H167.285V46ZM163.77 47V45.04H161.77V47H163.77ZM161.94 44.4826C161.07 45.7789 159.682 46.49 157.555 46.49V48.49C160.188 48.49 162.278 47.5678 163.6 45.5974L161.94 44.4826ZM157.555 46.49C155.891 46.49 154.568 45.943 153.509 44.8644L152.082 46.2656C153.543 47.7536 155.393 48.49 157.555 48.49V46.49ZM153.515 44.8711C152.503 43.8208 151.94 42.3225 151.94 40.245H149.94C149.94 42.6941 150.614 44.7425 152.075 46.2589L153.515 44.8711ZM151.94 40.245V29.5H149.94V40.245H151.94ZM150.94 30.5H155.455V28.5H150.94V30.5ZM154.455 29.5V39.685H156.455V29.5H154.455ZM154.455 39.685C154.455 41.0316 154.823 42.2168 155.693 43.0871L157.107 41.6729C156.718 41.2832 156.455 40.6718 156.455 39.685H154.455ZM155.707 43.1003C156.559 43.9214 157.667 44.29 158.92 44.29V42.29C158.074 42.29 157.501 42.052 157.094 41.6597L155.707 43.1003ZM158.92 44.29C160.311 44.29 161.52 43.8497 162.439 42.9004L161.002 41.5096C160.52 42.007 159.863 42.29 158.92 42.29V44.29ZM162.439 42.9004C163.385 41.9225 163.77 40.5427 163.77 38.95H161.77C161.77 40.2506 161.455 41.0409 161.002 41.5096L162.439 42.9004ZM163.77 38.95V29.5H161.77V38.95H163.77ZM175.935 32.51H174.935L176.872 32.8611L175.935 32.51ZM178 29.99L177.504 29.1217L177.495 29.127L178 29.99ZM181.255 29.15H182.255V28.15H181.255V29.15ZM181.255 34.19L181.138 35.183L182.255 35.3157V34.19H181.255ZM177.545 35.03L176.995 34.1952L176.987 34.2007L177.545 35.03ZM175.935 47V48H176.935V47H175.935ZM171.42 47H170.42V48H171.42V47ZM171.42 29.5V28.5H170.42V29.5H171.42ZM175.935 29.5H176.935V28.5H175.935V29.5ZM176.872 32.8611C177.218 31.938 177.763 31.2875 178.506 30.853L177.495 29.127C176.324 29.8125 175.493 30.842 174.999 32.1589L176.872 32.8611ZM178.497 30.8582C179.317 30.3893 180.23 30.15 181.255 30.15V28.15C179.901 28.15 178.644 28.4707 177.504 29.1218L178.497 30.8582ZM180.255 29.15V34.19H182.255V29.15H180.255ZM181.373 33.197C179.776 33.0075 178.3 33.3343 176.995 34.1952L178.096 35.8648C178.984 35.279 179.981 35.0459 181.138 35.183L181.373 33.197ZM176.987 34.2007C175.557 35.1643 174.935 36.7331 174.935 38.635H176.935C176.935 37.1769 177.387 36.3424 178.104 35.8593L176.987 34.2007ZM174.935 38.635V47H176.935V38.635H174.935ZM175.935 46H171.42V48H175.935V46ZM172.42 47V29.5H170.42V47H172.42ZM171.42 30.5H175.935V28.5H171.42V30.5ZM174.935 29.5V32.51H176.935V29.5H174.935Z" fill="black"/>
<path d="M102.08 34.295L101.454 33.5153L100.313 34.4313L101.581 35.1615L102.08 34.295ZM103.095 45.005L102.424 44.2635L102.424 44.2635L103.095 45.005ZM87.275 47H86.275V48H87.275V47ZM87.275 22.5V21.5H86.275V22.5H87.275ZM102.22 24.46L101.544 25.1967L101.55 25.2024L101.556 25.2081L102.22 24.46ZM92.105 27.015V26.015H91.105V27.015H92.105ZM92.105 32.405H91.105V33.405H92.105V32.405ZM98.79 31.635L98.0829 30.9279L98.0747 30.9361L98.0666 30.9445L98.79 31.635ZM99.7 41.68L100.407 42.3871L100.415 42.3796L100.422 42.3719L99.7 41.68ZM99.7 37.55L98.978 38.2419L98.9854 38.2496L98.9929 38.2571L99.7 37.55ZM92.105 36.71V35.71H91.105V36.71H92.105ZM92.105 42.485H91.105V43.485H92.105V42.485ZM101.581 35.1615C103.415 36.2179 104.3 37.7525 104.3 39.895H106.3C106.3 37.0442 105.039 34.8454 102.579 33.4285L101.581 35.1615ZM104.3 39.895C104.3 41.7043 103.674 43.133 102.424 44.2635L103.766 45.7465C105.456 44.217 106.3 42.239 106.3 39.895H104.3ZM102.424 44.2635C101.154 45.4127 99.5911 46 97.67 46V48C100.042 48 102.096 47.2573 103.766 45.7465L102.424 44.2635ZM97.67 46H87.275V48H97.67V46ZM88.275 47V22.5H86.275V47H88.275ZM87.275 23.5H96.935V21.5H87.275V23.5ZM96.935 23.5C98.8082 23.5 100.322 24.0747 101.544 25.1967L102.896 23.7233C101.272 22.232 99.2618 21.5 96.935 21.5V23.5ZM101.556 25.2081C102.78 26.2936 103.39 27.6621 103.39 29.395H105.39C105.39 27.1146 104.553 25.193 102.884 23.7119L101.556 25.2081ZM103.39 29.395C103.39 31.1317 102.75 32.4745 101.454 33.5153L102.706 35.0747C104.49 33.6422 105.39 31.7183 105.39 29.395H103.39ZM96.935 26.015H92.105V28.015H96.935V26.015ZM91.105 27.015V32.405H93.105V27.015H91.105ZM92.105 33.405H96.935V31.405H92.105V33.405ZM96.935 33.405C97.939 33.405 98.8239 33.0478 99.5134 32.3255L98.0666 30.9445C97.7761 31.2489 97.4244 31.405 96.935 31.405V33.405ZM99.4971 32.3421C100.21 31.629 100.56 30.7274 100.56 29.71H98.56C98.56 30.2326 98.3964 30.6144 98.0829 30.9279L99.4971 32.3421ZM100.56 29.71C100.56 28.7068 100.232 27.8105 99.5484 27.0945L98.1016 28.4755C98.3982 28.7862 98.56 29.1732 98.56 29.71H100.56ZM99.5484 27.0945C98.8525 26.3656 97.9525 26.015 96.935 26.015V28.015C97.4575 28.015 97.8175 28.1778 98.1016 28.4755L99.5484 27.0945ZM97.67 43.485C98.7296 43.485 99.6677 43.1265 100.407 42.3871L98.9929 40.9729C98.659 41.3068 98.2437 41.485 97.67 41.485V43.485ZM100.422 42.3719C101.153 41.6095 101.505 40.6544 101.505 39.58H99.505C99.505 40.1856 99.3207 40.6305 98.978 40.9881L100.422 42.3719ZM101.505 39.58C101.505 38.5204 101.147 37.5823 100.407 36.8429L98.9929 38.2571C99.3268 38.591 99.505 39.0063 99.505 39.58H101.505ZM100.422 36.8581C99.6858 36.0899 98.7431 35.71 97.67 35.71V37.71C98.2302 37.71 98.6408 37.8901 98.978 38.2419L100.422 36.8581ZM97.67 35.71H92.105V37.71H97.67V35.71ZM91.105 36.71V42.485H93.105V36.71H91.105ZM92.105 43.485H97.67V41.485H92.105V43.485ZM123.44 44.83L124.142 45.5417L124.147 45.5371L123.44 44.83ZM110.28 44.83L109.568 45.5325L109.577 45.5417L110.28 44.83ZM110.28 31.705L110.987 32.4121L110.987 32.4121L110.28 31.705ZM123.44 31.705L122.733 32.4121L122.737 32.4167L123.44 31.705ZM113.465 41.715L112.749 42.4129L112.758 42.4221L113.465 41.715ZM113.465 34.785L112.758 34.0778L112.749 34.0871L113.465 34.785ZM122.737 44.1183C121.133 45.7016 119.195 46.49 116.86 46.49V48.49C119.705 48.49 122.153 47.5051 124.142 45.5417L122.737 44.1183ZM116.86 46.49C114.525 46.49 112.586 45.7016 110.982 44.1183L109.577 45.5417C111.567 47.5051 114.015 48.49 116.86 48.49V46.49ZM110.992 44.1275C109.408 42.5234 108.62 40.5847 108.62 38.25H106.62C106.62 41.0953 107.605 43.5433 109.568 45.5325L110.992 44.1275ZM108.62 38.25C108.62 35.9155 109.408 33.9911 110.987 32.4121L109.573 30.9979C107.605 32.9655 106.62 35.4045 106.62 38.25H108.62ZM110.987 32.4121C112.592 30.807 114.529 30.01 116.86 30.01V28.01C114.01 28.01 111.561 29.0097 109.573 30.9979L110.987 32.4121ZM116.86 30.01C119.19 30.01 121.128 30.807 122.733 32.4121L124.147 30.9979C122.159 29.0097 119.709 28.01 116.86 28.01V30.01ZM122.737 32.4167C124.338 33.9967 125.135 35.9197 125.135 38.25H127.135C127.135 35.4003 126.135 32.9599 124.142 30.9933L122.737 32.4167ZM125.135 38.25C125.135 40.5805 124.338 42.5178 122.733 44.1229L124.147 45.5371C126.135 43.5489 127.135 41.0995 127.135 38.25H125.135ZM112.758 42.4221C113.866 43.5301 115.257 44.08 116.86 44.08V42.08C115.757 42.08 114.884 41.7199 114.172 41.0079L112.758 42.4221ZM116.86 44.08C118.463 44.08 119.854 43.5301 120.962 42.4221L119.548 41.0079C118.836 41.7199 117.963 42.08 116.86 42.08V44.08ZM120.962 42.4221C122.077 41.3072 122.62 39.8895 122.62 38.25H120.62C120.62 39.4105 120.253 40.3028 119.548 41.0079L120.962 42.4221ZM122.62 38.25C122.62 36.6105 122.077 35.1928 120.962 34.0779L119.548 35.4921C120.253 36.1972 120.62 37.0895 120.62 38.25H122.62ZM120.962 34.0779C119.854 32.9699 118.463 32.42 116.86 32.42V34.42C117.963 34.42 118.836 34.7801 119.548 35.4921L120.962 34.0779ZM116.86 32.42C115.257 32.42 113.866 32.9699 112.758 34.0779L114.172 35.4921C114.884 34.7801 115.757 34.42 116.86 34.42V32.42ZM112.749 34.0871C111.661 35.2037 111.135 36.6183 111.135 38.25H113.135C113.135 37.0817 113.496 36.1863 114.181 35.4829L112.749 34.0871ZM111.135 38.25C111.135 39.8817 111.661 41.2963 112.749 42.4129L114.181 41.0171C113.496 40.3137 113.135 39.4183 113.135 38.25H111.135ZM145.516 31.705L144.781 32.3829L144.79 32.3927L145.516 31.705ZM145.516 44.83L144.786 44.147L144.785 44.1473L145.516 44.83ZM133.826 44.935L134.614 44.3196L132.826 42.0294V44.935H133.826ZM133.826 47V48H134.826V47H133.826ZM129.311 47H128.311V48H129.311V47ZM129.311 22.5V21.5H128.311V22.5H129.311ZM133.826 22.5H134.826V21.5H133.826V22.5ZM133.826 31.565H132.826V34.4706L134.614 32.1804L133.826 31.565ZM135.191 41.82L134.475 42.5182L134.484 42.5271L135.191 41.82ZM142.121 41.82L141.414 41.1129L141.414 41.1129L142.121 41.82ZM142.121 34.715L141.405 35.4131L141.414 35.4222L141.423 35.431L142.121 34.715ZM135.191 34.715L135.898 35.4222L135.907 35.4131L135.191 34.715ZM139.496 30.01C141.562 30.01 143.306 30.7829 144.781 32.3829L146.251 31.0271C144.413 29.0337 142.144 28.01 139.496 28.01V30.01ZM144.79 32.3927C146.283 33.9684 147.036 35.8989 147.036 38.25H149.036C149.036 35.4211 148.109 32.9883 146.242 31.0173L144.79 32.3927ZM147.036 38.25C147.036 40.6012 146.283 42.5461 144.786 44.147L146.247 45.513C148.11 43.5206 149.036 41.0788 149.036 38.25H147.036ZM144.785 44.1473C143.311 45.7251 141.567 46.49 139.496 46.49V48.49C142.139 48.49 144.407 47.4816 146.247 45.5127L144.785 44.1473ZM139.496 46.49C137.307 46.49 135.728 45.7456 134.614 44.3196L133.038 45.5504C134.584 47.5311 136.785 48.49 139.496 48.49V46.49ZM132.826 44.935V47H134.826V44.935H132.826ZM133.826 46H129.311V48H133.826V46ZM130.311 47V22.5H128.311V47H130.311ZM129.311 23.5H133.826V21.5H129.311V23.5ZM132.826 22.5V31.565H134.826V22.5H132.826ZM134.614 32.1804C135.728 30.7544 137.307 30.01 139.496 30.01V28.01C136.785 28.01 134.584 28.9689 133.038 30.9496L134.614 32.1804ZM134.484 42.5271C135.599 43.6421 137.017 44.185 138.656 44.185V42.185C137.496 42.185 136.603 41.8179 135.898 41.1129L134.484 42.5271ZM138.656 44.185C140.296 44.185 141.713 43.6421 142.828 42.5271L141.414 41.1129C140.709 41.8179 139.817 42.185 138.656 42.185V44.185ZM142.828 42.5271C143.968 41.3873 144.521 39.9339 144.521 38.25H142.521C142.521 39.4595 142.141 40.386 141.414 41.1129L142.828 42.5271ZM144.521 38.25C144.521 36.5663 143.968 35.1188 142.819 33.999L141.423 35.431C142.141 36.1312 142.521 37.0404 142.521 38.25H144.521ZM142.837 34.0169C141.724 32.8752 140.304 32.315 138.656 32.315V34.315C139.809 34.315 140.698 34.6881 141.405 35.4131L142.837 34.0169ZM138.656 32.315C137.009 32.315 135.588 32.8752 134.475 34.0169L135.907 35.4131C136.614 34.6881 137.504 34.315 138.656 34.315V32.315ZM134.484 34.0079C133.362 35.1294 132.826 36.5741 132.826 38.25H134.826C134.826 37.0326 135.2 36.1206 135.898 35.4221L134.484 34.0079ZM132.826 38.25C132.826 39.9262 133.362 41.3768 134.475 42.5181L135.907 41.1219C135.2 40.3966 134.826 39.4671 134.826 38.25H132.826ZM162.77 29.5V28.5H161.77V29.5H162.77ZM167.285 29.5H168.285V28.5H167.285V29.5ZM167.285 47V48H168.285V47H167.285ZM162.77 47H161.77V48H162.77V47ZM162.77 45.04H163.77V41.7567L161.94 44.4826L162.77 45.04ZM152.795 45.565L152.075 46.2589L152.082 46.2656L152.795 45.565ZM150.94 29.5V28.5H149.94V29.5H150.94ZM155.455 29.5H156.455V28.5H155.455V29.5ZM156.4 42.38L155.693 43.0871L155.7 43.0938L155.707 43.1003L156.4 42.38ZM161.72 42.205L161.002 41.5096L161.72 42.205ZM162.77 30.5H167.285V28.5H162.77V30.5ZM166.285 29.5V47H168.285V29.5H166.285ZM167.285 46H162.77V48H167.285V46ZM163.77 47V45.04H161.77V47H163.77ZM161.94 44.4826C161.07 45.7789 159.682 46.49 157.555 46.49V48.49C160.188 48.49 162.278 47.5678 163.6 45.5974L161.94 44.4826ZM157.555 46.49C155.891 46.49 154.568 45.943 153.509 44.8644L152.082 46.2656C153.543 47.7536 155.393 48.49 157.555 48.49V46.49ZM153.515 44.8711C152.503 43.8208 151.94 42.3225 151.94 40.245H149.94C149.94 42.6941 150.614 44.7425 152.075 46.2589L153.515 44.8711ZM151.94 40.245V29.5H149.94V40.245H151.94ZM150.94 30.5H155.455V28.5H150.94V30.5ZM154.455 29.5V39.685H156.455V29.5H154.455ZM154.455 39.685C154.455 41.0316 154.823 42.2168 155.693 43.0871L157.107 41.6729C156.718 41.2832 156.455 40.6718 156.455 39.685H154.455ZM155.707 43.1003C156.559 43.9214 157.667 44.29 158.92 44.29V42.29C158.074 42.29 157.501 42.052 157.094 41.6597L155.707 43.1003ZM158.92 44.29C160.311 44.29 161.52 43.8497 162.439 42.9004L161.002 41.5096C160.52 42.007 159.863 42.29 158.92 42.29V44.29ZM162.439 42.9004C163.385 41.9225 163.77 40.5427 163.77 38.95H161.77C161.77 40.2506 161.455 41.0409 161.002 41.5096L162.439 42.9004ZM163.77 38.95V29.5H161.77V38.95H163.77ZM175.935 32.51H174.935L176.872 32.8611L175.935 32.51ZM178 29.99L177.504 29.1217L177.495 29.127L178 29.99ZM181.255 29.15H182.255V28.15H181.255V29.15ZM181.255 34.19L181.138 35.183L182.255 35.3157V34.19H181.255ZM177.545 35.03L176.995 34.1952L176.987 34.2007L177.545 35.03ZM175.935 47V48H176.935V47H175.935ZM171.42 47H170.42V48H171.42V47ZM171.42 29.5V28.5H170.42V29.5H171.42ZM175.935 29.5H176.935V28.5H175.935V29.5ZM176.872 32.8611C177.218 31.938 177.763 31.2875 178.506 30.853L177.495 29.127C176.324 29.8125 175.493 30.842 174.999 32.1589L176.872 32.8611ZM178.497 30.8582C179.317 30.3893 180.23 30.15 181.255 30.15V28.15C179.901 28.15 178.644 28.4707 177.504 29.1218L178.497 30.8582ZM180.255 29.15V34.19H182.255V29.15H180.255ZM181.373 33.197C179.776 33.0075 178.3 33.3343 176.995 34.1952L178.096 35.8648C178.984 35.279 179.981 35.0459 181.138 35.183L181.373 33.197ZM176.987 34.2007C175.557 35.1643 174.935 36.7331 174.935 38.635H176.935C176.935 37.1769 177.387 36.3424 178.104 35.8593L176.987 34.2007ZM174.935 38.635V47H176.935V38.635H174.935ZM175.935 46H171.42V48H175.935V46ZM172.42 47V29.5H170.42V47H172.42ZM171.42 30.5H175.935V28.5H171.42V30.5ZM174.935 29.5V32.51H176.935V29.5H174.935Z" fill="black" fill-opacity="0.2"/>
</svg>
