<svg width="360" height="696" viewBox="0 0 360 696" fill="none" xmlns="http://www.w3.org/2000/svg">
<path opacity="0.05" fill-rule="evenodd" clip-rule="evenodd" d="M186 0C-100.578 0 -162 61.422 -162 348C-162 634.578 -100.578 696 186 696C472.578 696 534 634.578 534 348C534 61.422 472.578 0 186 0ZM133.196 269.928V409.542H198.489C225.413 409.542 245.764 392.196 245.764 368.081C245.764 358.555 242.712 350.663 237.182 344.581C233.38 340.399 228.405 337.071 222.445 334.658C226.53 330.128 229.104 324.843 230.242 318.804C230.698 316.383 230.924 313.841 230.924 311.177C230.924 286.851 210.573 269.928 183.65 269.928H133.196ZM253.978 337.335C251.629 334.043 248.931 331.11 245.958 328.52C247.745 323.011 248.59 317.187 248.59 311.177C248.59 274.75 217.778 252.3 183.65 252.3H115.53V427.17H198.489C232.808 427.17 263.43 404.131 263.43 368.081C263.43 356.736 260.312 346.207 253.978 337.335ZM181.318 325.139C182.949 325.139 184.46 324.968 185.841 324.64C191.812 323.223 195.31 318.884 195.31 312.87C195.31 306.855 191.812 302.516 185.841 301.1C184.46 300.772 182.949 300.601 181.318 300.601H168.174V325.139H181.318ZM197.141 361.175C197.142 361.176 197.117 361.183 197.064 361.191C197.113 361.178 197.14 361.174 197.141 361.175ZM197.064 372.01C197.117 372.018 197.142 372.024 197.141 372.025C197.14 372.026 197.113 372.022 197.064 372.01ZM210.149 366.6C210.149 374.85 204.849 378.869 196.157 378.869H168.174V354.331H196.157C204.849 354.331 210.149 358.35 210.149 366.6Z" fill="white"/>
</svg>
